<?xml version="1.0" encoding="utf-8"?>
<!-- Generator: Adobe Illustrator 17.1.0, SVG Export Plug-In . SVG Version: 6.00 Build 0)  -->
<!DOCTYPE svg PUBLIC "-//W3C//DTD SVG 1.1//EN" "http://www.w3.org/Graphics/SVG/1.1/DTD/svg11.dtd">
<svg version="1.1" id="Layer_1" xmlns="http://www.w3.org/2000/svg" xmlns:xlink="http://www.w3.org/1999/xlink" x="0px" y="0px"
	 viewBox="0 0 347.7 722.9" enable-background="new 0 0 347.7 722.9" xml:space="preserve">
<g>
	<path fill="#4A494A" d="M343.6,57.4v608.2c0,13.8-5.4,26.7-15.1,36.5s-22.7,15.1-36.5,15.1H56.5c-13.8,0-26.8-5.4-36.5-15.1
		S4.9,679.3,4.9,665.5V258.8H4H2.9L2.1,258l-1.3-1.3L0,255.9v-1.1v-22.2v-1.1l0.8-0.8l1.3-1.3l0.8-0.8H4h0.9v-28.9H4H2.9l-0.8-0.8
		l-1.3-1.3L0,196.7v-1.1v-22.2v-1.1l0.8-0.8l1.3-1.3l0.8-0.8H4h0.9V140H4H2.9l-0.8-0.8l-1.3-1.3L0,137.1V136v-29.8v-1.1l0.8-0.8
		l1.3-1.3l0.8-0.8H4h0.9V57.4c0-13.8,5.4-26.7,15.1-36.5S42.7,5.8,56.5,5.8h171.5V4V2.5l1.4-0.8l2.3-1.3l0.6-0.4h0.7h50.2h0.9
		l0.7,0.6l1.7,1.3l1.1,0.8V4v1.8h4.4c13.8,0,26.8,5.4,36.5,15.1S343.6,43.6,343.6,57.4z M340.1,665.5v-10.7h-3.6v10.6
		c0,24.6-19.9,44.5-44.5,44.5H56.5C31.9,710,12,690,12,665.5v-10.6H8.4v10.7c0,12.8,5,24.9,14.1,33.9c9.1,9.1,21.1,14.1,34,14.1H292
		c12.8,0,24.9-5,34-14.1C335.1,690.4,340.1,678.3,340.1,665.5z M340.1,649.5V73.8h-3.6v575.7H340.1z M340.1,68.5V57.4
		c0-12.8-5-24.9-14.1-34c-9.1-9.1-21.2-14.1-34-14.1H56.5c-12.8,0-24.9,5-34,14.1c-9.1,9.1-14.1,21.1-14.1,34v11.1H12V57.3
		c0-24.6,19.9-44.5,44.5-44.5H292c24.6,0,44.5,19.9,44.5,44.5v11.1H340.1z M333,665.5V57.3c0-22.6-18.4-40.9-41-40.9H56.5
		c-22.6,0-41,18.4-41,40.9v608.2c0,22.6,18.4,40.9,41,40.9H292C314.6,706.4,333,688,333,665.5z M285,5.8V4l-1.7-1.3h-50.2L230.7,4
		v1.8H285z M12,649.5V73.8H8.4v28.5v2.7v32.5v2.7v29.4v2.7v24.9v2.7v28.9v2.7v24.9v2.7v390.8H12z M4.9,256.1v-24.9H4
		c-0.6,0.6-1,1-1.3,1.3v22.2l1.3,1.3H4.9z M4.9,196.9v-24.9H4c-0.6,0.6-1,1-1.3,1.3v22.2l1.3,1.3H4.9z M4.9,137.4v-32.5H4
		c-0.6,0.6-1,1-1.3,1.3V136l1.3,1.3H4.9z"/>
	<path fill="#FFFFFF" d="M340.1,654.9v10.7c0,12.8-5,24.9-14.1,33.9c-9.1,9.1-21.2,14.1-34,14.1H56.5c-12.8,0-24.9-5-34-14.1
		c-9.1-9.1-14.1-21.1-14.1-33.9v-10.7H12v10.6C12,690,31.9,710,56.5,710H292c24.6,0,44.5-19.9,44.5-44.5v-10.6H340.1z"/>
	<rect x="336.5" y="73.8" fill="#FFFFFF" width="3.6" height="575.7"/>
	<path fill="#FFFFFF" d="M340.1,57.4v11.1h-3.6V57.3c0-24.6-19.9-44.5-44.5-44.5H56.5C31.9,12.9,12,32.8,12,57.3v11.1H8.4V57.4
		c0-12.8,5-24.9,14.1-34c9.1-9.1,21.1-14.1,34-14.1H292c12.8,0,24.9,5,34,14.1C335.1,32.5,340.1,44.5,340.1,57.4z"/>
	<path fill="#FFFFFF" d="M333,57.3v608.2c0,22.6-18.4,40.9-41,40.9H56.5c-22.6,0-41-18.4-41-40.9V57.3c0-22.6,18.4-40.9,41-40.9H292
		C314.6,16.4,333,34.8,333,57.3z M319.6,614v-505c0-2-1.6-3.5-3.6-3.5H31.6c-2,0-3.5,1.6-3.5,3.5v505c0,2,1.6,3.6,3.5,3.6h284.5
		C318,617.5,319.6,615.9,319.6,614z M204.5,68.9c0-3.7-3-6.7-6.7-6.7h-48.9c-3.7,0-6.7,3-6.7,6.7c0,3.7,3,6.7,6.7,6.7h48.9
		C201.5,75.6,204.5,72.6,204.5,68.9z M204.1,663.5c0-16.6-13.4-30-30-30c-16.6,0-30,13.4-30,30c0,16.6,13.4,30,30,30
		C190.6,693.5,204.1,680.1,204.1,663.5z M181.4,42.1c0-4.2-3.4-7.5-7.6-7.5c-4.2,0-7.6,3.4-7.6,7.5c0,4.2,3.4,7.6,7.6,7.6
		C178,49.6,181.4,46.2,181.4,42.1z"/>
	<path fill="#4A494A" d="M319.6,108.9v505c0,2-1.6,3.6-3.6,3.6H31.6c-2,0-3.5-1.6-3.5-3.6v-505c0-2,1.6-3.5,3.5-3.5h284.5
		C318,105.4,319.6,107,319.6,108.9z M316.1,614v-505H31.6v505H316.1z"/>
	<polygon fill="#FFFFFF" points="285,4 285,5.8 230.7,5.8 230.7,4 233.1,2.7 283.2,2.7 	"/>
	<path fill="#4A494A" d="M197.8,62.2c3.7,0,6.7,3,6.7,6.7c0,3.7-3,6.7-6.7,6.7h-48.9c-3.7,0-6.7-3-6.7-6.7c0-3.7,3-6.7,6.7-6.7
		H197.8z M200.9,68.9c0-1.7-1.4-3.1-3.1-3.1h-48.9c-1.7,0-3.1,1.4-3.1,3.1c0,1.7,1.4,3.1,3.1,3.1h48.9
		C199.6,72,200.9,70.6,200.9,68.9z"/>
	<path fill="#FFFFFF" d="M197.8,65.8c1.7,0,3.1,1.4,3.1,3.1c0,1.7-1.4,3.1-3.1,3.1h-48.9c-1.7,0-3.1-1.4-3.1-3.1
		c0-1.7,1.4-3.1,3.1-3.1H197.8z"/>
	<path fill="#4A494A" d="M174.1,633.5c16.6,0,30,13.4,30,30c0,16.6-13.4,30-30,30c-16.6,0-30-13.4-30-30
		C144,647,157.5,633.5,174.1,633.5z M200.5,663.5c0-14.6-11.9-26.5-26.4-26.5c-14.6,0-26.4,11.9-26.4,26.5
		c0,14.6,11.9,26.4,26.4,26.4C188.6,690,200.5,678.1,200.5,663.5z"/>
	<path fill="#FFFFFF" d="M174.1,637.1c14.6,0,26.4,11.9,26.4,26.5c0,14.6-11.9,26.4-26.4,26.4c-14.6,0-26.4-11.9-26.4-26.4
		C147.6,649,159.5,637.1,174.1,637.1z"/>
	<path fill="#4A494A" d="M173.8,34.5c4.2,0,7.6,3.4,7.6,7.5c0,4.2-3.4,7.6-7.6,7.6c-4.2,0-7.6-3.4-7.6-7.6
		C166.3,37.9,169.7,34.5,173.8,34.5z M178.7,42.1c0-2.7-2.2-4.9-4.9-4.9c-2.7,0-4.9,2.2-4.9,4.9c0,2.7,2.2,4.9,4.9,4.9
		C176.5,47,178.7,44.8,178.7,42.1z"/>
	<path fill="#FFFFFF" d="M173.8,37.2c2.7,0,4.9,2.2,4.9,4.9c0,2.7-2.2,4.9-4.9,4.9c-2.7,0-4.9-2.2-4.9-4.9
		C168.9,39.4,171.1,37.2,173.8,37.2z M176.5,42c0-1.5-1.2-2.7-2.7-2.7c-1.5,0-2.7,1.2-2.7,2.7c0,1.5,1.2,2.7,2.7,2.7
		C175.3,44.6,176.5,43.4,176.5,42z"/>
	<path fill="#4A494A" d="M173.8,39.3c1.5,0,2.7,1.2,2.7,2.7c0,1.5-1.2,2.7-2.7,2.7c-1.5,0-2.7-1.2-2.7-2.7
		C171.2,40.5,172.4,39.3,173.8,39.3z"/>
	<polygon fill="#FFFFFF" points="12,73.8 12,649.5 8.4,649.5 8.4,258.8 8.4,256.1 8.4,231.2 8.4,228.5 8.4,199.6 8.4,196.9 
		8.4,172.1 8.4,169.4 8.4,140 8.4,137.4 8.4,104.9 8.4,102.3 8.4,73.8 	"/>
	<path fill="#FFFFFF" d="M4.9,231.2v24.9H4l-1.3-1.3v-22.2c0.4-0.4,0.8-0.8,1.3-1.3H4.9z"/>
	<path fill="#FFFFFF" d="M4.9,172.1v24.9H4l-1.3-1.3v-22.2c0.4-0.4,0.8-0.7,1.3-1.3H4.9z"/>
	<path fill="#FFFFFF" d="M4.9,104.9v32.5H4L2.7,136v-29.8c0.4-0.4,0.8-0.8,1.3-1.3H4.9z"/>
</g>
<g>
</g>
<g>
</g>
<g>
</g>
<g>
</g>
<g>
</g>
<g>
</g>
</svg>
