<?xml version="1.0" encoding="utf-8"?>
<!-- Generator: Adobe Illustrator 17.1.0, SVG Export Plug-In . SVG Version: 6.00 Build 0)  -->
<!DOCTYPE svg PUBLIC "-//W3C//DTD SVG 1.1//EN" "http://www.w3.org/Graphics/SVG/1.1/DTD/svg11.dtd">
<svg version="1.1" id="Layer_1" xmlns="http://www.w3.org/2000/svg" xmlns:xlink="http://www.w3.org/1999/xlink" x="0px" y="0px"
	 viewBox="0 0 100 100" enable-background="new 0 0 100 100" xml:space="preserve">
<g>
	<path fill="#FFFFFF" d="M54.7,57.3c0-2.5-2-4.5-4.5-4.5c-2.5,0-4.5,2-4.5,4.5c0,1.6,0.8,3,2.2,3.8l-2,7.4c-0.1,0.2,0,0.5,0.1,0.7
		c0.2,0.2,0.4,0.3,0.6,0.3h6.9c0.3,0,0.5-0.1,0.6-0.3c0.2-0.2,0.2-0.5,0.1-0.7l-2-7.4C53.9,60.3,54.7,58.9,54.7,57.3z"/>
	<path fill="#FFFFFF" d="M50,1C22.9,1,1,22.9,1,50s21.9,49,49,49s49-21.9,49-49S77.1,1,50,1z M50,21.3c9.9,0,17.8,8.1,17.8,18h-6.7
		c0-5.9-5-10.8-10.9-10.8c-6,0-10.9,4.7-10.9,10.8h-7.2C32.2,29.6,40.1,21.3,50,21.3z M71.5,68.1c0,5.9-4.6,10.6-10.5,10.6H39.4
		c-5.9,0-10.9-4.7-10.9-10.6V42.9h36.3l6.7,0V68.1z"/>
</g>
</svg>
