<?xml version="1.0" encoding="utf-8"?>
<!-- Generator: Adobe Illustrator 17.1.0, SVG Export Plug-In . SVG Version: 6.00 Build 0)  -->
<!DOCTYPE svg PUBLIC "-//W3C//DTD SVG 1.1//EN" "http://www.w3.org/Graphics/SVG/1.1/DTD/svg11.dtd">
<svg version="1.1" id="Layer_1" xmlns="http://www.w3.org/2000/svg" xmlns:xlink="http://www.w3.org/1999/xlink" x="0px" y="0px"
	 viewBox="0 0 100 100" enable-background="new 0 0 100 100" xml:space="preserve">
<path fill="#FFFFFF" d="M50,1C23,1,1,22.9,1,50C1,77,22.9,99,50,99C77,99,99,77.1,99,50C99,23,77.1,1,50,1z M67.6,42.7
	c-2.5,0.7-5.5,2.5-7.1,4.5L35.3,78.4c-1.4,1.5-3.7,1.7-5.2,0.3c-1.5-1.4-1.7-3.7-0.3-5.3l20.2-24.8c4-5.1,4.3-5.1,4.9-7.9
	c0.5-2.1-0.7-6-0.8-7.5c-1-5.1,2.8-8.8,5-9.9l0,8.7l5.4,4.2l5.5-4.4l0-8.6c2.9,1.6,5.1,5.2,5.1,9.2C75.2,37.2,71.9,41.3,67.6,42.7z"
	/>
</svg>
