<?xml version="1.0" encoding="utf-8"?>
<!-- Generator: Adobe Illustrator 17.1.0, SVG Export Plug-In . SVG Version: 6.00 Build 0)  -->
<!DOCTYPE svg PUBLIC "-//W3C//DTD SVG 1.1//EN" "http://www.w3.org/Graphics/SVG/1.1/DTD/svg11.dtd">
<svg version="1.1" id="Layer_1" xmlns="http://www.w3.org/2000/svg" xmlns:xlink="http://www.w3.org/1999/xlink" x="0px" y="0px"
	 viewBox="0 0 100 100" enable-background="new 0 0 100 100" xml:space="preserve">
<g>
	<rect x="42.3" y="36.7" fill="#FFFFFF" width="4.1" height="8.2"/>
	<rect x="50.5" y="49" fill="#FFFFFF" width="4.1" height="8.2"/>
	<rect x="42.3" y="49" fill="#FFFFFF" width="4.1" height="8.2"/>
	<rect x="50.5" y="61.3" fill="#FFFFFF" width="4.1" height="8.2"/>
	<rect x="42.3" y="61.3" fill="#FFFFFF" width="4.1" height="8.2"/>
	<rect x="50.5" y="36.7" fill="#FFFFFF" width="4.1" height="8.2"/>
	<rect x="34" y="61.3" fill="#FFFFFF" width="4.1" height="8.2"/>
	<rect x="34" y="49" fill="#FFFFFF" width="4.1" height="8.2"/>
	<rect x="34" y="36.7" fill="#FFFFFF" width="4.1" height="8.2"/>
	<rect x="59.3" y="66.1" fill="#FFFFFF" width="3.5" height="3.5"/>
	<rect x="66" y="52.6" fill="#FFFFFF" width="3.5" height="3.5"/>
	<path fill="#FFFFFF" d="M50,1C22.9,1,1,22.9,1,50s21.9,49,49,49s49-21.9,49-49S77.1,1,50,1z M75.6,75.8H27v-2.7h1.7V30.7h-1.8
		l1.6-3.9h3.7v-2.1h24.2v2.1h3.7l1.6,3.9h-1.8V44h15.5v3.2h-1.5v25.9h1.7V75.8z"/>
	<rect x="66" y="59.3" fill="#FFFFFF" width="3.5" height="3.5"/>
	<rect x="66" y="66.1" fill="#FFFFFF" width="3.5" height="3.5"/>
	<rect x="59.3" y="59.3" fill="#FFFFFF" width="3.5" height="3.5"/>
	<rect x="59.3" y="52.6" fill="#FFFFFF" width="3.5" height="3.5"/>
</g>
</svg>
