<?xml version="1.0" encoding="utf-8"?>
<!-- Generator: Adobe Illustrator 17.1.0, SVG Export Plug-In . SVG Version: 6.00 Build 0)  -->
<!DOCTYPE svg PUBLIC "-//W3C//DTD SVG 1.1//EN" "http://www.w3.org/Graphics/SVG/1.1/DTD/svg11.dtd">
<svg version="1.1" id="Layer_1" xmlns="http://www.w3.org/2000/svg" xmlns:xlink="http://www.w3.org/1999/xlink" x="0px" y="0px"
	 viewBox="0 0 100 100" enable-background="new 0 0 100 100" xml:space="preserve">
<g>
	<circle fill="#FFFFFF" cx="44.6" cy="63.1" r="2.3"/>
	<circle fill="#FFFFFF" cx="49.8" cy="45.2" r="2.3"/>
	<circle fill="#FFFFFF" cx="56.2" cy="51.6" r="2.3"/>
	<circle fill="#FFFFFF" cx="50.4" cy="57.4" r="2.3"/>
	<path fill="#FFFFFF" d="M50,1C22.9,1,1,22.9,1,50s21.9,49,49,49s49-21.9,49-49S77.1,1,50,1z M69.7,53.4L49.9,73.2
		c-6,6-15.6,6-21.5,0c-6-6-5.9-15.6,0-21.5l19.8-19.8c2.1-2.1,5.3-2.1,7.4,0l4.8,4.8c0.8-0.5,3-0.8,4.1,0.3c1.1,1.1,0.8,3.4,0.3,4.1
		l4.8,4.8C71.7,47.9,71.8,51.3,69.7,53.4z M72.2,41.8c-0.2,0.2-0.5,0.4-0.8,0.4c-0.8,0.1-1.6-0.4-1.8-1.3c-0.4-2.3-1.5-4.4-3.1-6
		c-1.7-1.7-3.7-2.7-6-3.1c-0.8-0.1-1.4-0.9-1.3-1.8c0.1-0.8,0.9-1.4,1.8-1.3c2.9,0.5,5.6,1.9,7.7,4c2.1,2.1,3.5,4.8,4,7.7
		C72.8,41,72.6,41.5,72.2,41.8z M77.6,41.8c-0.2,0.2-0.5,0.4-0.9,0.4c-0.8,0.1-1.6-0.5-1.7-1.3c-0.5-3.7-2.1-7.1-4.7-9.7
		c-2.6-2.6-6-4.3-9.7-4.7c-0.9-0.1-1.5-0.9-1.4-1.7c0.1-0.9,0.9-1.5,1.7-1.4c4.4,0.5,8.4,2.5,11.5,5.6c3.1,3.1,5.1,7.1,5.6,11.5
		C78.1,41,77.9,41.5,77.6,41.8z"/>
	<circle fill="#FFFFFF" cx="38.3" cy="56.8" r="2.3"/>
	<circle fill="#FFFFFF" cx="44" cy="51" r="2.3"/>
</g>
</svg>
