<?xml version="1.0" encoding="utf-8"?>
<!-- Generator: Adobe Illustrator 17.1.0, SVG Export Plug-In . SVG Version: 6.00 Build 0)  -->
<!DOCTYPE svg PUBLIC "-//W3C//DTD SVG 1.1//EN" "http://www.w3.org/Graphics/SVG/1.1/DTD/svg11.dtd">
<svg version="1.1" id="Layer_1" xmlns="http://www.w3.org/2000/svg" xmlns:xlink="http://www.w3.org/1999/xlink" x="0px" y="0px"
	 viewBox="0 0 100 100" enable-background="new 0 0 100 100" xml:space="preserve">
<path fill="#FFFFFF" d="M31.1,65.8c-1.7,1.6-1.6,4.3,0,6c1.6,1.7,4.3,1.7,6,0c1.6-1.6,1.6-4.3,0-6C35.3,64.2,32.7,64.2,31.1,65.8z"
	/>
<path fill="#FFFFFF" d="M50,1C22.9,1,1,22.9,1,50s21.9,49,49,49s49-21.9,49-49S77.1,1,50,1z M75.2,37.4l-5.5,0l0,5.5l-5.4,0l0,5.3
	l-5.5,0l0,7.2l-4.5,4.5c1.5,5.3,0.1,11.2-4,15.3c-6.2,6.2-16.3,6.1-22.5-0.1c-6.2-6.2-6.3-16.3-0.1-22.5c4.1-4.2,10-5.5,15.4-4
	l22.5-22.5l7.7,0c1.4,0,1.9,0.5,1.9,1.9L75.2,37.4z"/>
</svg>
