<?xml version="1.0" encoding="utf-8"?>
<!-- Generator: Adobe Illustrator 17.1.0, SVG Export Plug-In . SVG Version: 6.00 Build 0)  -->
<!DOCTYPE svg PUBLIC "-//W3C//DTD SVG 1.1//EN" "http://www.w3.org/Graphics/SVG/1.1/DTD/svg11.dtd">
<svg version="1.1" id="Layer_1" xmlns="http://www.w3.org/2000/svg" xmlns:xlink="http://www.w3.org/1999/xlink" x="0px" y="0px"
	 viewBox="0 0 100 100" enable-background="new 0 0 100 100" xml:space="preserve">
<path fill="#FFFFFF" d="M50,1C22.9,1,1,22.9,1,50s21.9,49,49,49s49-21.9,49-49S77.1,1,50,1z M46.2,60.9L38,69.1h3.6
	c1.9,0,3.5,1.6,3.5,3.5c0,1.9-1.6,3.5-3.5,3.5H30.2c-1.1,0-2.3-0.1-3.2-1c-0.9-0.9-0.9-2-0.9-3.2V60.5c0-1.9,1.6-3.5,3.5-3.5
	s3.5,1.6,3.5,3.5v3.6l8.1-8.1c1.4-1.4,3.6-1.4,5,0S47.6,59.5,46.2,60.9z M46.2,45.9c-1.4,1.4-3.6,1.4-5,0l-8.1-8.1v3.6
	c0,1.9-1.6,3.5-3.5,3.5s-3.5-1.6-3.5-3.5V29.9c0-1.1,0.1-2.3,0.9-3.2c0.9-0.9,2-0.9,3.2-0.9h11.4c1.9,0,3.5,1.6,3.5,3.5
	s-1.6,3.5-3.5,3.5H38l8.2,8.1C47.6,42.3,47.6,44.5,46.2,45.9z M76.4,71.9c0,1.1-0.1,2.3-1,3.2c-0.9,0.9-2.1,1-3.2,1H60.8
	c-1.9,0-3.5-1.6-3.5-3.5c0-1.9,1.6-3.5,3.5-3.5h3.6l-8.1-8.1c-1.4-1.4-1.4-3.6,0-5c1.4-1.4,3.6-1.4,5,0l8.1,8.1v-3.6
	c0-1.9,1.6-3.5,3.5-3.5c1.9,0,3.5,1.6,3.5,3.5V71.9z M76.4,41.3c0,1.9-1.6,3.5-3.5,3.5c-1.9,0-3.5-1.6-3.5-3.5v-3.6l-8.1,8.1
	c-1.4,1.4-3.6,1.4-5,0c-1.4-1.4-1.4-3.6,0-4.9l8.1-8.1h-3.6c-1.9,0-3.5-1.6-3.5-3.5s1.6-3.5,3.5-3.5h11.4c1.1,0,2.3,0.1,3.2,0.9
	s1,2,1,3.2V41.3z"/>
</svg>
