<?xml version="1.0" encoding="utf-8"?>
<!-- Generator: Adobe Illustrator 17.1.0, SVG Export Plug-In . SVG Version: 6.00 Build 0)  -->
<!DOCTYPE svg PUBLIC "-//W3C//DTD SVG 1.1//EN" "http://www.w3.org/Graphics/SVG/1.1/DTD/svg11.dtd">
<svg version="1.1" id="Layer_1" xmlns="http://www.w3.org/2000/svg" xmlns:xlink="http://www.w3.org/1999/xlink" x="0px" y="0px"
	 viewBox="0 0 512.3 525.4" enable-background="new 0 0 512.3 525.4" xml:space="preserve">
<g>
	<path fill="#FFFFFF" d="M310.3,36.6h-43.9c-22.7,0-41.1,18.4-41.1,41.1h41.1h43.9c35,0,63.6,28.5,63.6,63.6
		c0,35-28.5,63.6-63.6,63.6h-43.9c-22.7,0-41.1,18.4-41.1,41.1h41.1h43.9c57.7,0,104.7-47,104.7-104.7C415,83.5,368,36.6,310.3,36.6
		"/>
	<path fill="#FFFFFF" d="M235.3,288.9c-35,0-63.6-28.5-63.6-63.6c0-35,28.5-63.6,63.6-63.6h43.9c22.7,0,41.1-18.4,41.1-41.1h-41.1
		h-43.9c-57.7,0-104.7,47-104.7,104.7c0,57.7,47,104.7,104.7,104.7h43.9c22.7,0,41.1-18.4,41.1-41.1h-41.1H235.3z"/>
	<g>
		<path fill="#FFFFFF" d="M49.6,411.7h10.5V422c2.9-6.9,8.2-11.6,16.3-11.2v11.1h-0.6c-9.2,0-15.7,6-15.7,18.2v17.5H49.6V411.7z"/>
	</g>
	<g>
		<path fill="#FFFFFF" d="M86.4,434.8v-0.2c0-13.1,9.3-23.9,22.5-23.9c14.6,0,22,11.5,22,24.7c0,1-0.1,1.9-0.2,3H96.9
			c1.1,7.5,6.4,11.7,13.2,11.7c5.1,0,8.8-1.9,12.5-5.5l6.2,5.5c-4.4,5.2-10.4,8.6-18.8,8.6C96.6,458.7,86.4,449,86.4,434.8z
			 M120.4,431.4c-0.7-6.8-4.7-12.1-11.7-12.1c-6.4,0-11,5-11.9,12.1H120.4z"/>
	</g>
	<g>
		<path fill="#FFFFFF" d="M143.6,411.7h10.5v7c3-4.1,7-7.9,14-7.9c6.6,0,11.2,3.2,13.7,8.1c3.7-4.9,8.6-8.1,15.6-8.1
			c10,0,16.1,6.4,16.1,17.6v29.3H203v-26.1c0-7.3-3.4-11.2-9.3-11.2c-5.7,0-9.8,4-9.8,11.4v25.9h-10.5v-26.2
			c0-7.1-3.5-11.1-9.3-11.1c-5.8,0-9.8,4.4-9.8,11.5v25.9h-10.5V411.7z"/>
	</g>
	<g>
		<path fill="#FFFFFF" d="M226.5,434.9v-0.2c0-13.1,10.4-24,24.6-24c14.1,0,24.5,10.7,24.5,23.9v0.2c0,13.1-10.4,23.9-24.6,23.9
			C236.8,458.7,226.5,448,226.5,434.9z M264.9,434.9v-0.2c0-8.1-5.8-14.8-14.1-14.8c-8.4,0-13.8,6.6-13.8,14.6v0.2
			c0,8,5.8,14.8,14,14.8C259.5,449.5,264.9,442.8,264.9,434.9z"/>
	</g>
	<g>
		<path fill="#FFFFFF" d="M290.5,444.9v-24.2h-5.8v-9.1h5.8V399h10.5v12.6h12.4v9.1h-12.4v22.5c0,4.1,2.1,5.7,5.7,5.7
			c2.4,0,4.4-0.5,6.5-1.6v8.6c-2.6,1.5-5.6,2.4-9.5,2.4C296,458.4,290.5,455,290.5,444.9z"/>
	</g>
	<g>
		<path fill="#FFFFFF" d="M324.8,434.8v-0.2c0-13.1,9.3-23.9,22.5-23.9c14.6,0,22,11.5,22,24.7c0,1-0.1,1.9-0.2,3h-33.8
			c1.1,7.5,6.4,11.7,13.2,11.7c5.1,0,8.8-1.9,12.5-5.5l6.2,5.5c-4.4,5.2-10.4,8.6-18.8,8.6C335.1,458.7,324.8,449,324.8,434.8z
			 M358.9,431.4c-0.7-6.8-4.7-12.1-11.7-12.1c-6.4,0-11,5-11.9,12.1H358.9z"/>
	</g>
	<g>
		<path fill="#FFFFFF" d="M383.2,394.1h10.5v63.6h-10.5V394.1z"/>
	</g>
	<g>
		<path fill="#FFFFFF" d="M409.1,469l3.6-7.8c1.9,1,4,1.7,6.2,1.7c3,0,4.8-1.3,6.5-5.3l-19.2-46h11.2l13.1,34.1l11.9-34.1h11
			l-18.3,47.3c-3.7,9.4-7.7,12.9-15.1,12.9C415.6,471.8,412.4,470.8,409.1,469z"/>
	</g>
</g>
</svg>
