<?xml version="1.0" encoding="utf-8"?>
<!-- Generator: Adobe Illustrator 17.1.0, SVG Export Plug-In . SVG Version: 6.00 Build 0)  -->
<!DOCTYPE svg PUBLIC "-//W3C//DTD SVG 1.1//EN" "http://www.w3.org/Graphics/SVG/1.1/DTD/svg11.dtd">
<svg version="1.1" id="Layer_1" xmlns="http://www.w3.org/2000/svg" xmlns:xlink="http://www.w3.org/1999/xlink" x="0px" y="0px"
	 viewBox="0 0 100 100" enable-background="new 0 0 100 100" xml:space="preserve">
<g>
	
		<rect x="16.1" y="39.7" transform="matrix(0.7071 -0.7071 0.7071 0.7071 -17.0634 41.8847)" fill="#FFFFFF" width="51.8" height="3.7"/>
	<path fill="#FFFFFF" d="M30.3,66.4l13.1,13.1L80,42.8L66.9,29.8L30.3,66.4z M43.3,74.2l-2.6-2.6l5.2-5.2l2.6,2.6L43.3,74.2z
		 M51.2,66.4l-2.6-2.6l5.2-5.2l2.6,2.6L51.2,66.4z M70.8,46.8c-1,1-2.3,1.5-3.6,1.6c-0.1,1.3-0.6,2.6-1.6,3.6
		c-2.2,2.2-5.7,2.2-7.8,0c-2.2-2.2-2.2-5.7,0-7.8c1-1,2.3-1.5,3.6-1.6c0.1-1.3,0.6-2.6,1.6-3.6c2.2-2.2,5.7-2.2,7.8,0
		C73,41.1,73,44.6,70.8,46.8z"/>
	<path fill="#FFFFFF" d="M50,1C22.9,1,1,22.9,1,50s21.9,49,49,49s49-21.9,49-49S77.1,1,50,1z M82.6,45.5L46,82.1
		c-1.4,1.4-3.8,1.4-5.2,0L19.8,61.2c-1.4-1.4-1.4-3.8,0-5.2l36.6-36.6c1.4-1.4,3.8-1.4,5.2,0l20.9,20.9C84,41.7,84,44,82.6,45.5z"/>
</g>
</svg>
