<?xml version="1.0" encoding="utf-8"?>
<!-- Generator: Adobe Illustrator 17.1.0, SVG Export Plug-In . SVG Version: 6.00 Build 0)  -->
<!DOCTYPE svg PUBLIC "-//W3C//DTD SVG 1.1//EN" "http://www.w3.org/Graphics/SVG/1.1/DTD/svg11.dtd">
<svg version="1.1" xmlns="http://www.w3.org/2000/svg" xmlns:xlink="http://www.w3.org/1999/xlink" x="0px" y="0px"
	 viewBox="0 0 252 252" enable-background="new 0 0 252 252" xml:space="preserve">
<g id="grid" display="none">
	<rect x="-4.3" y="-212.8" display="inline" fill="#FFFFFF" stroke="#000000" stroke-miterlimit="10" width="67" height="768"/>
	<rect x="82.7" y="-212.8" display="inline" fill="#FFFFFF" stroke="#000000" stroke-miterlimit="10" width="67" height="768"/>
	<rect x="169.7" y="-212.8" display="inline" fill="#FFFFFF" stroke="#000000" stroke-miterlimit="10" width="67" height="768"/>
</g>
<g id="Layer_2">
	<circle fill="#E5F1DD" cx="126" cy="126" r="126"/>
	<g display="none">
		<g display="inline">
			<line fill="none" stroke="#000000" stroke-miterlimit="10" x1="-48.3" y1="329.7" x2="118.2" y2="329.7"/>
			<g>
				<g>
					<line fill="none" stroke="#000000" stroke-miterlimit="10" x1="-48.3" y1="329.7" x2="-48.3" y2="326.8"/>
					<line fill="none" stroke="#000000" stroke-miterlimit="10" x1="-15" y1="329.7" x2="-15" y2="326.8"/>
					<line fill="none" stroke="#000000" stroke-miterlimit="10" x1="18.3" y1="329.7" x2="18.3" y2="326.8"/>
					<line fill="none" stroke="#000000" stroke-miterlimit="10" x1="51.6" y1="329.7" x2="51.6" y2="326.8"/>
					<line fill="none" stroke="#000000" stroke-miterlimit="10" x1="84.9" y1="329.7" x2="84.9" y2="326.8"/>
					<line fill="none" stroke="#000000" stroke-miterlimit="10" x1="118.2" y1="329.7" x2="118.2" y2="326.8"/>
				</g>
				<g>
				</g>
			</g>
		</g>
		<g display="inline">
			<g>
				<text transform="matrix(1 0 0 1 -54.9532 332.6288)" font-family="'MyriadPro-Regular'" font-size="7.8047">0</text>
				<text transform="matrix(1 0 0 1 -54.9532 312.9619)" font-family="'MyriadPro-Regular'" font-size="7.8047">2</text>
				<text transform="matrix(1 0 0 1 -54.9532 293.2958)" font-family="'MyriadPro-Regular'" font-size="7.8047">4</text>
				<text transform="matrix(1 0 0 1 -54.9532 273.6288)" font-family="'MyriadPro-Regular'" font-size="7.8047">6</text>
				<text transform="matrix(1 0 0 1 -54.9532 253.9619)" font-family="'MyriadPro-Regular'" font-size="7.8047">8</text>
				<text transform="matrix(1 0 0 1 -58.9571 234.2959)" font-family="'MyriadPro-Regular'" font-size="7.8047">10</text>
				<text transform="matrix(1 0 0 1 -58.9571 214.6289)" font-family="'MyriadPro-Regular'" font-size="7.8047">12</text>
			</g>
			<line fill="none" stroke="#000000" stroke-miterlimit="10" x1="-48.3" y1="329.7" x2="-48.3" y2="211.7"/>
			<g>
				<g>
					<line fill="none" stroke="#000000" stroke-miterlimit="10" x1="-48.3" y1="329.7" x2="-44.2" y2="329.7"/>
					<line fill="none" stroke="#000000" stroke-miterlimit="10" x1="-48.3" y1="310" x2="-44.2" y2="310"/>
					<line fill="none" stroke="#000000" stroke-miterlimit="10" x1="-48.3" y1="290.4" x2="-44.2" y2="290.4"/>
					<line fill="none" stroke="#000000" stroke-miterlimit="10" x1="-48.3" y1="270.7" x2="-44.2" y2="270.7"/>
					<line fill="none" stroke="#000000" stroke-miterlimit="10" x1="-48.3" y1="251" x2="-44.2" y2="251"/>
					<line fill="none" stroke="#000000" stroke-miterlimit="10" x1="-48.3" y1="231.4" x2="-44.2" y2="231.4"/>
					<line fill="none" stroke="#000000" stroke-miterlimit="10" x1="-48.3" y1="211.7" x2="-44.2" y2="211.7"/>
				</g>
				<g>
				</g>
			</g>
		</g>
		<g display="inline">
			<g>
				<g>
					
						<line fill="none" stroke="#DFDFDF" stroke-width="2" stroke-linecap="round" stroke-miterlimit="10" x1="1.6" y1="329.7" x2="-31.7" y2="329.7"/>
					
						<line fill="none" stroke="#DFDFDF" stroke-width="2" stroke-linecap="round" stroke-miterlimit="10" x1="34.9" y1="329.7" x2="1.6" y2="329.7"/>
					
						<line fill="none" stroke="#DFDFDF" stroke-width="2" stroke-linecap="round" stroke-miterlimit="10" x1="68.2" y1="329.7" x2="34.9" y2="329.7"/>
					
						<line fill="none" stroke="#DFDFDF" stroke-width="2" stroke-linecap="round" stroke-miterlimit="10" x1="101.5" y1="329.7" x2="68.2" y2="329.7"/>
				</g>
			</g>
			<g>
				<g>
					
						<line fill="none" stroke="#000000" stroke-width="2" stroke-linecap="round" stroke-miterlimit="10" x1="1.6" y1="211.7" x2="-31.7" y2="231.4"/>
					
						<line fill="none" stroke="#000000" stroke-width="2" stroke-linecap="round" stroke-miterlimit="10" x1="34.9" y1="231.4" x2="1.6" y2="211.7"/>
					
						<line fill="none" stroke="#000000" stroke-width="2" stroke-linecap="round" stroke-miterlimit="10" x1="68.2" y1="236.3" x2="34.9" y2="231.4"/>
					
						<line fill="none" stroke="#000000" stroke-width="2" stroke-linecap="round" stroke-miterlimit="10" x1="101.5" y1="251" x2="68.2" y2="236.3"/>
				</g>
			</g>
		</g>
		<g display="inline">
			<g>
				<g>
					<rect x="-34.7" y="326.7" fill="#DFDFDF" stroke="#000000" stroke-width="0.5" stroke-miterlimit="10" width="6" height="6"/>
					<rect x="-1.4" y="326.7" fill="#DFDFDF" stroke="#000000" stroke-width="0.5" stroke-miterlimit="10" width="6" height="6"/>
					<rect x="31.9" y="326.7" fill="#DFDFDF" stroke="#000000" stroke-width="0.5" stroke-miterlimit="10" width="6" height="6"/>
					<rect x="65.2" y="326.7" fill="#DFDFDF" stroke="#000000" stroke-width="0.5" stroke-miterlimit="10" width="6" height="6"/>
					<rect x="98.5" y="326.7" fill="#DFDFDF" stroke="#000000" stroke-width="0.5" stroke-miterlimit="10" width="6" height="6"/>
				</g>
			</g>
			<g>
				<g>
					<rect x="-34.7" y="228.4" stroke="#000000" stroke-width="0.5" stroke-miterlimit="10" width="6" height="6"/>
					<rect x="-1.4" y="208.7" stroke="#000000" stroke-width="0.5" stroke-miterlimit="10" width="6" height="6"/>
					<rect x="31.9" y="228.4" stroke="#000000" stroke-width="0.5" stroke-miterlimit="10" width="6" height="6"/>
					<rect x="65.2" y="233.3" stroke="#000000" stroke-width="0.5" stroke-miterlimit="10" width="6" height="6"/>
					<rect x="98.5" y="248" stroke="#000000" stroke-width="0.5" stroke-miterlimit="10" width="6" height="6"/>
				</g>
			</g>
		</g>
	</g>
	<linearGradient id="SVGID_1_" gradientUnits="userSpaceOnUse" x1="113.5215" y1="209.7021" x2="113.5215" y2="128.3359">
		<stop  offset="0" style="stop-color:#E5F1DD"/>
		<stop  offset="1" style="stop-color:#DEF1F6"/>
	</linearGradient>
	<polygon fill="url(#SVGID_1_)" points="12.2,154.2 37.8,209.7 203.2,209.7 214.9,190.5 164.6,161.3 114.6,152.2 62.8,128.3 	"/>
	<g>
		<g>
			
				<line fill="none" stroke="#59C8E0" stroke-width="3.5314" stroke-linecap="round" stroke-miterlimit="10" x1="63.4" y1="127.6" x2="12.2" y2="151.4"/>
			
				<line fill="none" stroke="#59C8E0" stroke-width="3.5314" stroke-linecap="round" stroke-miterlimit="10" x1="114.6" y1="151.4" x2="63.4" y2="127.6"/>
			
				<line fill="none" stroke="#59C8E0" stroke-width="3.5314" stroke-linecap="round" stroke-miterlimit="10" x1="165.9" y1="161.4" x2="114.6" y2="151.4"/>
			
				<line fill="none" stroke="#59C8E0" stroke-width="3.5314" stroke-linecap="round" stroke-miterlimit="10" x1="217.1" y1="191.3" x2="165.9" y2="161.4"/>
		</g>
	</g>
	<circle fill="#E4534C" cx="218.2" cy="191.7" r="5"/>
	<g display="none">
		<path display="inline" fill="#E4534C" d="M81.8,67.7v-2.6l3.3-3.2c8-7.6,11.6-11.6,11.6-16.3c0-3.2-1.5-6.1-6.2-6.1
			c-2.8,0-5.2,1.4-6.6,2.6l-1.3-3c2.2-1.8,5.2-3.2,8.8-3.2c6.7,0,9.6,4.6,9.6,9.1c0,5.8-4.2,10.4-10.8,16.8l-2.5,2.3v0.1h14v3.5
			H81.8z"/>
		<path display="inline" fill="#E4534C" d="M135.5,51.2c0,11.1-6.8,17-15,17c-8.5,0-14.5-6.6-14.5-16.4c0-10.3,6.4-17,15-17
			C129.8,34.8,135.5,41.6,135.5,51.2z M110.4,51.7c0,6.9,3.7,13.1,10.3,13.1c6.6,0,10.4-6.1,10.4-13.4c0-6.4-3.4-13.2-10.3-13.2
			C113.9,38.2,110.4,44.6,110.4,51.7z"/>
		<path display="inline" fill="#E4534C" d="M157.8,41.4c0,3-1.6,4.5-3.4,4.5c-1.8,0-3.3-1.4-3.3-4.3c0-2.9,1.6-4.5,3.5-4.5
			C156.4,37.2,157.8,38.7,157.8,41.4z M152.5,41.6c0,1.8,0.6,3.2,1.8,3.2c1.3,0,1.8-1.4,1.8-3.3c0-1.7-0.5-3.2-1.8-3.2
			C153.2,38.3,152.5,39.8,152.5,41.6z M154.2,51.9l8.4-14.8h1.2l-8.4,14.8H154.2z M167.1,47.3c0,3-1.6,4.5-3.4,4.5
			c-1.8,0-3.3-1.4-3.3-4.3c0-2.9,1.6-4.5,3.5-4.5C165.8,43.1,167.1,44.6,167.1,47.3z M161.8,47.5c0,1.8,0.7,3.2,1.9,3.2
			c1.3,0,1.8-1.4,1.8-3.3c0-1.7-0.5-3.2-1.8-3.2C162.5,44.2,161.8,45.7,161.8,47.5z"/>
		<path display="inline" fill="#E4534C" d="M81.4,74.2h2V88H90v1.7h-8.6V74.2z"/>
		<path display="inline" fill="#E4534C" d="M104.3,81.8c0,5.3-3.2,8.2-7.2,8.2c-4.1,0-7-3.2-7-7.9c0-4.9,3.1-8.1,7.2-8.1
			C101.6,74,104.3,77.2,104.3,81.8z M92.3,82c0,3.3,1.8,6.3,4.9,6.3c3.2,0,5-2.9,5-6.4c0-3.1-1.6-6.3-4.9-6.3
			C93.9,75.6,92.3,78.6,92.3,82z"/>
		<path display="inline" fill="#E4534C" d="M109.2,89.7l-3.9-15.5h2.1l1.8,7.8c0.5,1.9,0.9,3.9,1.2,5.4h0c0.3-1.5,0.7-3.4,1.3-5.4
			l2.1-7.8h2.1l1.9,7.9c0.4,1.8,0.9,3.7,1.1,5.3h0c0.3-1.7,0.8-3.4,1.2-5.4l2-7.8h2l-4.4,15.5h-2.1l-2-8.1c-0.5-2-0.8-3.5-1-5.1h0
			c-0.3,1.5-0.6,3.1-1.2,5.1l-2.2,8.1H109.2z"/>
		<path display="inline" fill="#E4534C" d="M133.9,82.4h-6V88h6.7v1.7h-8.7V74.2h8.4v1.7h-6.4v4.9h6V82.4z"/>
		<path display="inline" fill="#E4534C" d="M136.9,74.4c1-0.2,2.5-0.3,3.8-0.3c2.1,0,3.5,0.4,4.5,1.3c0.8,0.7,1.2,1.7,1.2,2.9
			c0,2-1.3,3.4-2.9,4v0.1c1.2,0.4,1.9,1.5,2.3,3.1c0.5,2.2,0.9,3.7,1.2,4.3H145c-0.3-0.4-0.6-1.8-1-3.7c-0.5-2.1-1.3-2.9-3.1-3h-1.9
			v6.7h-2V74.4z M138.9,81.5h2c2.1,0,3.5-1.2,3.5-2.9c0-2-1.4-2.9-3.6-2.9c-1,0-1.7,0.1-2,0.2V81.5z"/>
		<path display="inline" fill="#E4534C" d="M84.9,101.9h-3.1v2.9h3.5v0.9h-4.5v-8.1H85v0.9h-3.3v2.6h3.1V101.9z"/>
		<path display="inline" fill="#E4534C" d="M86.4,105.7v-8.1h1.1l2.6,4.1c0.6,0.9,1.1,1.8,1.5,2.6l0,0c-0.1-1.1-0.1-2.1-0.1-3.3
			v-3.4h1v8.1h-1.1l-2.6-4.1c-0.6-0.9-1.1-1.8-1.5-2.7l0,0c0.1,1,0.1,2,0.1,3.3v3.5H86.4z"/>
		<path display="inline" fill="#E4534C" d="M100.2,105.3c-0.5,0.2-1.4,0.4-2.5,0.4c-1.2,0-2.2-0.3-3-1.1c-0.7-0.7-1.1-1.8-1.1-3
			c0-2.4,1.7-4.2,4.4-4.2c0.9,0,1.7,0.2,2,0.4l-0.3,0.9c-0.4-0.2-1-0.3-1.8-0.3c-2,0-3.2,1.2-3.2,3.2c0,2.1,1.2,3.3,3.1,3.3
			c0.7,0,1.2-0.1,1.4-0.2v-2.4h-1.6v-0.8h2.7V105.3z"/>
		<path display="inline" fill="#E4534C" d="M105.8,101.9h-3.1v2.9h3.5v0.9h-4.5v-8.1h4.4v0.9h-3.3v2.6h3.1V101.9z"/>
		<path display="inline" fill="#E4534C" d="M107.3,97.7c0.5-0.1,1.3-0.2,2-0.2c1.1,0,1.8,0.2,2.3,0.7c0.4,0.4,0.6,0.9,0.6,1.5
			c0,1.1-0.7,1.8-1.5,2.1v0c0.6,0.2,1,0.8,1.2,1.6c0.3,1.1,0.5,1.9,0.6,2.2h-1.1c-0.1-0.2-0.3-0.9-0.5-1.9c-0.2-1.1-0.7-1.5-1.6-1.6
			h-1v3.5h-1V97.7z M108.3,101.4h1.1c1.1,0,1.8-0.6,1.8-1.5c0-1-0.8-1.5-1.9-1.5c-0.5,0-0.9,0-1,0.1V101.4z"/>
		<path display="inline" fill="#E4534C" d="M115.2,105.7v-3.4l-2.6-4.7h1.2l1.1,2.2c0.3,0.6,0.6,1.1,0.8,1.7h0
			c0.2-0.5,0.5-1.1,0.8-1.7l1.2-2.2h1.2l-2.7,4.6v3.4H115.2z"/>
		<path display="inline" fill="#E4534C" d="M127.6,105.4c-0.4,0.2-1.2,0.4-2.1,0.4c-2.3,0-4-1.4-4-4.1c0-2.5,1.7-4.2,4.2-4.2
			c1,0,1.6,0.2,1.9,0.4l-0.3,0.9c-0.4-0.2-1-0.3-1.6-0.3c-1.9,0-3.2,1.2-3.2,3.3c0,2,1.1,3.3,3.1,3.3c0.6,0,1.3-0.1,1.7-0.3
			L127.6,105.4z"/>
		<path display="inline" fill="#E4534C" d="M135.4,101.6c0,2.8-1.7,4.3-3.8,4.3c-2.1,0-3.6-1.7-3.6-4.1c0-2.6,1.6-4.2,3.8-4.2
			C134,97.5,135.4,99.2,135.4,101.6z M129.1,101.7c0,1.7,0.9,3.3,2.6,3.3c1.7,0,2.6-1.5,2.6-3.4c0-1.6-0.8-3.3-2.6-3.3
			C130,98.3,129.1,99.9,129.1,101.7z"/>
		<path display="inline" fill="#E4534C" d="M136.4,104.4c0.5,0.3,1.2,0.5,1.9,0.5c1.1,0,1.7-0.6,1.7-1.4c0-0.8-0.4-1.2-1.5-1.6
			c-1.3-0.5-2.1-1.2-2.1-2.3c0-1.3,1-2.2,2.6-2.2c0.8,0,1.4,0.2,1.8,0.4l-0.3,0.9c-0.3-0.1-0.8-0.4-1.5-0.4c-1.1,0-1.5,0.7-1.5,1.2
			c0,0.8,0.5,1.1,1.6,1.6c1.4,0.5,2.1,1.2,2.1,2.4c0,1.2-0.9,2.3-2.8,2.3c-0.8,0-1.6-0.2-2.1-0.5L136.4,104.4z"/>
		<path display="inline" fill="#E4534C" d="M143.8,98.5h-2.5v-0.9h6v0.9h-2.5v7.2h-1.1V98.5z"/>
	</g>
	<g>
		<path fill="#8FC96E" d="M211.7,169.3v1.2h-4.4v-1.2H211.7z"/>
		<path fill="#8FC96E" d="M216.2,177.3v-1.8c-1,0-2.1-0.3-2.8-0.8l0.4-1.2c0.6,0.4,1.6,0.8,2.6,0.8c1.3,0,2.1-0.7,2.1-1.8
			c0-1-0.7-1.6-2-2.1c-1.8-0.7-3-1.5-3-3.1c0-1.5,1.1-2.6,2.7-2.9v-1.8h1.1v1.7c1.1,0,1.8,0.3,2.3,0.6l-0.4,1.2
			c-0.4-0.2-1.1-0.6-2.3-0.6c-1.4,0-1.9,0.8-1.9,1.5c0,0.9,0.7,1.4,2.2,2.1c1.9,0.8,2.8,1.7,2.8,3.3c0,1.4-1,2.8-2.8,3.1v1.9H216.2z
			"/>
	</g>
	<g>
		<path fill="#E4534C" d="M87.6,44.8l-5.2-4.2c3.3-4.5,6.5-7,12.5-7c7.2,0,11.6,4.1,11.6,10.4c0,5.6-2.9,8.4-8.8,13.1l-5.5,4.2h14.6
			v6.4H82v-5.9l11.2-9.2c4.2-3.5,5.8-5.3,5.8-8.1c0-2.8-1.9-4.4-4.5-4.4C91.9,40.2,90.1,41.7,87.6,44.8z"/>
		<path fill="#E4534C" d="M129.9,68.3c-10.4,0-17.8-7.7-17.8-17.3v-0.1c0-9.6,7.5-17.4,17.9-17.4c10.4,0,17.8,7.7,17.8,17.3v0.1
			C147.8,60.5,140.2,68.3,129.9,68.3z M140.1,50.9c0-5.8-4.2-10.6-10.2-10.6c-6,0-10.1,4.7-10.1,10.5v0.1c0,5.8,4.2,10.6,10.2,10.6
			C135.9,61.5,140.1,56.8,140.1,50.9L140.1,50.9z"/>
		<path fill="#E4534C" d="M155,44c-2.2,0-3.6-1.8-3.6-3.9c0-2.2,1.5-4,3.7-4c2.2,0,3.6,1.8,3.6,3.9C158.6,42.2,157.2,44,155,44z
			 M155.1,51.7h-2.2l11.3-15.4h2.2L155.1,51.7z M155,37.8c-1,0-1.7,1-1.7,2.2c0,1.3,0.7,2.3,1.7,2.3c1,0,1.7-1,1.7-2.2
			C156.7,38.8,156,37.8,155,37.8z M164.3,51.9c-2.2,0-3.6-1.8-3.6-3.9c0-2.2,1.5-4,3.7-4c2.2,0,3.6,1.8,3.6,3.9
			C167.9,50.1,166.5,51.9,164.3,51.9z M164.3,45.7c-1,0-1.6,1-1.6,2.2c0,1.3,0.7,2.3,1.7,2.3c1,0,1.7-1,1.7-2.2
			C166,46.7,165.3,45.7,164.3,45.7z"/>
		<path fill="#E4534C" d="M81.6,89.7V73.6h3.5v12.9h8v3.2H81.6z"/>
		<path fill="#E4534C" d="M102.4,90c-5,0-8.5-3.7-8.5-8.3v0c0-4.6,3.6-8.3,8.6-8.3c5,0,8.5,3.7,8.5,8.3v0
			C111,86.2,107.4,90,102.4,90z M107.3,81.7c0-2.8-2-5.1-4.9-5.1c-2.9,0-4.8,2.3-4.8,5v0c0,2.8,2,5.1,4.9,5.1
			C105.3,86.7,107.3,84.5,107.3,81.7L107.3,81.7z"/>
		<path fill="#E4534C" d="M130.7,89.8h-3.1L124,79.3l-3.6,10.5h-3.1l-5.5-16.2h3.8l3.3,10.9l3.6-10.9h3l3.6,10.9l3.3-10.9h3.7
			L130.7,89.8z"/>
		<path fill="#E4534C" d="M138.5,89.7V73.6h12.1v3.2h-8.6V80h7.6v3.1h-7.6v3.4h8.7v3.2H138.5z"/>
		<path fill="#E4534C" d="M163.5,89.7l-3.4-5.2h-2.8v5.2h-3.5V73.6h7.4c3.8,0,6.1,2,6.1,5.3v0c0,2.6-1.4,4.2-3.4,5l3.9,5.7H163.5z
			 M163.5,79.1c0-1.5-1.1-2.3-2.8-2.3h-3.5v4.6h3.6C162.6,81.4,163.5,80.5,163.5,79.1L163.5,79.1z"/>
		<path fill="#E4534C" d="M81.8,105.7v-8.4h6.3v1.6h-4.5v1.7h4v1.6h-4v1.8h4.6v1.6H81.8z"/>
		<path fill="#E4534C" d="M95.5,105.7l-4.1-5.3v5.3h-1.8v-8.4h1.7l3.9,5.2v-5.2h1.8v8.4H95.5z"/>
		<path fill="#E4534C" d="M103,105.8c-2.6,0-4.4-1.8-4.4-4.3v0c0-2.4,1.9-4.3,4.4-4.3c1.5,0,2.4,0.4,3.3,1.2l-1.2,1.4
			c-0.6-0.5-1.2-0.9-2.2-0.9c-1.3,0-2.4,1.2-2.4,2.6v0c0,1.5,1.1,2.7,2.5,2.7c0.7,0,1.3-0.2,1.7-0.5v-1.2h-1.9v-1.6h3.6v3.6
			C105.7,105.2,104.5,105.8,103,105.8z"/>
		<path fill="#E4534C" d="M108.1,105.7v-8.4h6.3v1.6h-4.5v1.7h4v1.6h-4v1.8h4.6v1.6H108.1z"/>
		<path fill="#E4534C" d="M121,105.7l-1.8-2.7h-1.5v2.7h-1.8v-8.4h3.8c2,0,3.2,1,3.2,2.8v0c0,1.4-0.7,2.2-1.8,2.6l2.1,3H121z
			 M121.1,100.2c0-0.8-0.6-1.2-1.5-1.2h-1.8v2.4h1.9C120.5,101.4,121.1,100.9,121.1,100.2L121.1,100.2z"/>
		<path fill="#E4534C" d="M128.3,102.4v3.3h-1.8v-3.3l-3.2-5.1h2.2l2,3.4l2-3.4h2.1L128.3,102.4z"/>
		<path fill="#E4534C" d="M139.8,105.8c-2.5,0-4.3-1.9-4.3-4.3v0c0-2.4,1.8-4.3,4.4-4.3c1.6,0,2.5,0.5,3.3,1.3l-1.2,1.4
			c-0.6-0.6-1.3-0.9-2.1-0.9c-1.4,0-2.4,1.2-2.4,2.6v0c0,1.4,1,2.6,2.4,2.6c1,0,1.5-0.4,2.2-1l1.2,1.2
			C142.4,105.3,141.4,105.8,139.8,105.8z"/>
		<path fill="#E4534C" d="M148.3,105.8c-2.6,0-4.4-1.9-4.4-4.3v0c0-2.4,1.9-4.3,4.5-4.3c2.6,0,4.4,1.9,4.4,4.3v0
			C152.8,103.9,150.9,105.8,148.3,105.8z M150.9,101.5c0-1.4-1.1-2.6-2.5-2.6c-1.5,0-2.5,1.2-2.5,2.6v0c0,1.4,1.1,2.6,2.5,2.6
			C149.8,104.1,150.9,103,150.9,101.5L150.9,101.5z"/>
		<path fill="#E4534C" d="M157.2,105.8c-1.3,0-2.6-0.4-3.6-1.3l1.1-1.3c0.8,0.6,1.5,1,2.5,1c0.8,0,1.2-0.3,1.2-0.8v0
			c0-0.5-0.3-0.7-1.7-1.1c-1.7-0.4-2.8-0.9-2.8-2.6v0c0-1.5,1.2-2.5,2.9-2.5c1.2,0,2.3,0.4,3.1,1.1l-1,1.4c-0.7-0.5-1.5-0.8-2.2-0.8
			c-0.7,0-1.1,0.3-1.1,0.7v0c0,0.6,0.4,0.7,1.8,1.1c1.7,0.4,2.7,1.1,2.7,2.5v0C160.2,104.9,159,105.8,157.2,105.8z"/>
		<path fill="#E4534C" d="M165.3,99v6.7h-1.8V99h-2.6v-1.7h7V99H165.3z"/>
	</g>
</g>
</svg>
