<?xml version="1.0" encoding="utf-8"?>
<!-- Generator: Adobe Illustrator 17.1.0, SVG Export Plug-In . SVG Version: 6.00 Build 0)  -->
<!DOCTYPE svg PUBLIC "-//W3C//DTD SVG 1.1//EN" "http://www.w3.org/Graphics/SVG/1.1/DTD/svg11.dtd">
<svg version="1.1" id="Layer_1" xmlns="http://www.w3.org/2000/svg" xmlns:xlink="http://www.w3.org/1999/xlink" x="0px" y="0px"
	 viewBox="0 0 100 100" enable-background="new 0 0 100 100" xml:space="preserve">
<g>
	<path fill="#FFFFFF" d="M38.1,66h25.6V26.4H38.1V66z M51.9,58.7v1.2h-1.1v0h0v0h0v-1.1c-0.8,0-1.5-0.2-2-0.5l0.3-1.4
		c0.5,0.3,1.2,0.5,1.9,0.5c0.7,0,1.1-0.3,1.1-0.7c0-0.4-0.4-0.7-1.2-1c-1.2-0.4-2.1-1-2.1-2.1c0-1,0.7-1.8,2-2.1v-1.1H52v1
		c0.8,0,1.3,0.2,1.7,0.4l-0.3,1.3c-0.3-0.1-0.8-0.4-1.7-0.4c-0.8,0-1,0.3-1,0.7c0,0.4,0.4,0.6,1.4,1c1.4,0.5,1.9,1.1,1.9,2.2
		C54,57.6,53.2,58.5,51.9,58.7z M41.3,33.4h19.2v1.3H41.3V33.4z M41.3,36.4h19.2v1.3H41.3V36.4z M41.3,39.6h19.2v1.3H41.3V39.6z
		 M41.3,42.7h19.2V44H41.3V42.7z"/>
	<path fill="#FFFFFF" d="M50,1C22.9,1,1,22.9,1,50s21.9,49,49,49s49-21.9,49-49S77.1,1,50,1z M34.4,63.1l-3.9,1.2l-7.1-22.8l11-3.4
		V63.1z M36,68V24.3h29.8V68H36z M70.9,79.6l-18.8-6.2l1.2-3.8h14V51.3l11.5,3.8L70.9,79.6z"/>
</g>
</svg>
