<?xml version="1.0" encoding="utf-8"?>
<!-- Generator: Adobe Illustrator 17.1.0, SVG Export Plug-In . SVG Version: 6.00 Build 0)  -->
<!DOCTYPE svg PUBLIC "-//W3C//DTD SVG 1.1//EN" "http://www.w3.org/Graphics/SVG/1.1/DTD/svg11.dtd">
<svg version="1.1" id="Layer_1" xmlns="http://www.w3.org/2000/svg" xmlns:xlink="http://www.w3.org/1999/xlink" x="0px" y="0px"
	 viewBox="0 0 100 100" enable-background="new 0 0 100 100" xml:space="preserve">
<g>
	<path fill="#FFFFFF" d="M50,48.6c-0.1-0.1-0.2-0.2-0.3-0.3h-0.7V50h3v-1.1C51.4,49.2,50.6,49.1,50,48.6z"/>
	<path fill="#FFFFFF" d="M52.8,48.1c0,0.1,0,0.2,0,0.3V50h1.9v7.5v3.7h0.8v-6.4V50h1.2h0.3l2.4-7.6l-3,1.2L52.8,48.1z"/>
	<path fill="#FFFFFF" d="M50,1C22.9,1,1,22.9,1,50s21.9,49,49,49s49-21.9,49-49S77.1,1,50,1z M62.1,31.5c0.3-2.1,2.3-3.6,4.4-3.2
		c2.1,0.3,3.6,2.3,3.2,4.4c-0.3,2.1-2.3,3.5-4.4,3.2C63.2,35.5,61.7,33.6,62.1,31.5z M39.3,71.4l-15,5.5V21.7l15,5.5V71.4z
		 M45.5,61.2h-1.3v0h-0.3c-0.8,0-1.7-0.6-1.7-1.7c0,0,0-7.8,0-7.8c0-1,0.8-1.7,1.7-1.7h1.6V61.2z M76.2,53.3
		c-0.6,0.8-1.8,0.9-2.6,0.3L68,49.1c-0.3-0.2-0.5-0.5-0.6-0.8l-0.6-1.7l-2.2,7.1l5.7,5.8c0.3,0.4,0.5,0.8,0.5,1.3v0c0,0,0,0.1,0,0.1
		v9.9c0,1.4-1.2,2.6-2.6,2.6c-1.4,0-2.6-1.2-2.6-2.6v-8.9l-5.1-5.2l-1.9,6.1c0,0.1-0.1,0.2-0.2,0.3c-0.1,0.2-0.3,0.5-0.5,0.6
		l-6.1,6.2c-1,1-2.6,1-3.7,0c-1-1-1-2.6,0-3.7l5-5.1h-6.9V50h1.9v-1.6c0-0.6,0.5-0.9,1.1-0.9c0-0.5,0.1-1,0.4-1.4l4.2-5.2
		c0.2-0.2,0.5-0.4,0.8-0.5l8-3.3c0.1,0,0.2-0.1,0.3-0.1c0.8-0.2,1.6-0.3,2.4,0c1,0.3,1.8,1,2.3,1.8c0.1,0.1,0.2,0.3,0.2,0.5l2.7,7.3
		l5.2,4.2c0.4,0.3,0.6,0.8,0.7,1.3C76.7,52.4,76.5,52.9,76.2,53.3z"/>
</g>
</svg>
